<svg width="304" height="45" viewBox="0 0 304 45" fill="none" xmlns="http://www.w3.org/2000/svg">
<path d="M38.352 24.072C37.264 24.072 36.368 24.008 36.368 23.944C36.368 23.88 37.264 20.488 38.352 16.456C40.528 8.2 40.976 6.024 40.976 3.848C40.976 1.672 40.336 0.584 38.992 0.584C37.968 0.584 36.56 1.224 34.704 2.504C29.712 6.024 21.584 14.664 13.712 24.84L12.816 25.992L9.744 26.376C4.048 27.144 0.848 27.976 0.848 28.68C0.848 29.32 1.36 29.32 3.664 28.744C5.904 28.168 11.536 27.272 11.728 27.464C11.792 27.528 11.024 28.808 10 30.28C6.608 35.272 3.856 40.008 3.92 40.648C3.984 41.096 4.112 41.224 4.56 41.224C5.008 41.224 5.2 41.032 5.52 40.2C6.288 38.408 13.776 27.016 14.16 27.016C14.288 27.016 16.336 26.824 18.768 26.568C22.736 26.184 27.408 25.8 32.592 25.48L34.512 25.352L34.384 25.8C33.808 27.72 32.976 31.176 32.336 34.312C30.864 41.096 30.544 43.72 31.056 44.488C31.312 44.872 32.336 44.936 32.528 44.552C32.592 44.424 32.592 43.912 32.528 43.4C32.336 41.864 33.616 35.208 35.536 28.04L36.304 25.224H38.928C41.488 25.224 41.616 25.224 41.68 24.84C41.808 24.264 40.976 24.072 38.608 24.072H38.352ZM35.344 22.472L34.896 24.136L34 24.2C30.224 24.392 21.52 25.096 18.768 25.416C15.056 25.8 15.12 25.8 15.12 25.672C15.12 25.544 18.96 20.68 20.624 18.696C25.616 12.744 29.648 8.584 33.872 5.128C36.624 2.888 38.352 1.8 39.12 1.864C39.184 1.864 39.248 1.864 39.312 1.864C40.08 2.12 39.888 4.936 38.864 9.096C38.544 10.376 37.712 13.512 37.008 16.072C36.304 18.632 35.536 21.512 35.28 22.408L35.344 22.472ZM61.006 25.16C60.494 25.48 59.854 25.992 59.022 26.632C56.078 29 54.286 29.96 52.814 30.088C52.046 30.152 51.854 30.088 51.598 29.768C51.214 29.192 51.47 28.04 52.302 26.504C52.878 25.48 52.942 25.224 52.686 24.968C52.302 24.584 52.046 24.648 51.342 25.224L50.702 25.736L50.382 25.096C49.998 24.328 49.294 23.944 48.398 23.944C47.694 23.944 46.862 24.2 45.966 24.712C42.83 26.504 40.654 30.408 42.254 31.368C43.406 32.072 45.518 31.304 48.462 29.064L49.998 27.912V29C49.998 29.96 50.062 30.152 50.766 30.728C52.046 31.752 53.646 31.56 56.462 29.96C57.998 29.064 60.43 27.208 61.71 25.928C62.158 25.48 62.414 25.16 62.414 25.032C62.414 24.328 62.094 24.264 60.878 25.096L61.006 25.16ZM47.886 27.848C47.054 28.488 45.774 29.32 45.07 29.768C43.406 30.728 43.022 30.792 43.214 29.96C43.662 28.104 47.182 25.096 48.59 25.16C48.718 25.16 48.846 25.224 48.91 25.288C49.038 25.352 49.23 25.736 49.358 26.12C49.55 26.76 49.486 26.824 48.014 27.912L47.886 27.848ZM82.1725 24.456C81.7885 24.328 80.9565 24.84 76.9885 27.784C73.2125 30.6 70.8445 31.496 70.4605 30.216C69.8845 28.424 74.3645 17.992 78.0125 12.552C78.9085 11.208 78.9725 10.952 78.4605 10.632C78.3325 10.568 78.2045 10.504 78.0765 10.504C77.6285 10.504 77.0525 11.208 75.7085 13.256C72.1245 18.696 70.3325 21.32 69.0525 23.048L67.7085 24.904L66.9405 24.264C65.9805 23.496 65.1485 23.432 64.0605 24.072C62.4605 24.968 60.6045 27.848 60.6045 29.448C60.6045 30.92 62.2685 31.304 64.1245 30.28C65.2125 29.64 67.3245 27.528 69.2445 25.096C70.5245 23.496 70.5245 23.496 69.5645 26.056C69.1165 27.272 68.9245 28.168 68.9245 29.384C68.9245 30.856 68.9885 31.048 69.5005 31.496C69.8205 31.752 70.2685 32.008 70.5245 32.072C72.5085 32.392 74.6205 31.304 79.6125 27.464C82.2365 25.416 82.7485 24.776 81.9805 24.52L82.1725 24.456ZM65.2125 27.592C63.5485 29.256 62.2685 30.088 62.0765 29.64C61.7565 28.936 63.9325 25.48 65.0205 24.968C65.2125 24.904 65.4045 24.84 65.5325 24.84C65.8525 24.84 66.1085 25.032 66.4285 25.544C66.7485 26.056 66.7485 26.12 65.2765 27.656L65.2125 27.592ZM98.096 25.16C97.584 25.48 96.944 25.992 96.112 26.632C93.168 29 91.376 29.96 89.904 30.088C89.136 30.152 88.944 30.088 88.688 29.768C88.304 29.192 88.56 28.04 89.392 26.504C89.968 25.48 90.032 25.224 89.776 24.968C89.392 24.584 89.136 24.648 88.432 25.224L87.792 25.736L87.472 25.096C87.088 24.328 86.384 23.944 85.488 23.944C84.784 23.944 83.952 24.2 83.056 24.712C79.92 26.504 77.744 30.408 79.344 31.368C80.496 32.072 82.608 31.304 85.552 29.064L87.088 27.912V29C87.088 29.96 87.152 30.152 87.856 30.728C89.136 31.752 90.736 31.56 93.552 29.96C95.088 29.064 97.52 27.208 98.8 25.928C99.248 25.48 99.504 25.16 99.504 25.032C99.504 24.328 99.184 24.264 97.968 25.096L98.096 25.16ZM84.976 27.848C84.144 28.488 82.864 29.32 82.16 29.768C80.496 30.728 80.112 30.792 80.304 29.96C80.752 28.104 84.272 25.096 85.68 25.16C85.808 25.16 85.936 25.224 86 25.288C86.128 25.352 86.32 25.736 86.448 26.12C86.64 26.76 86.576 26.824 85.104 27.912L84.976 27.848ZM111.135 24.776C110.175 25.096 109.407 25.224 108.511 25.224C106.975 25.224 106.655 24.84 106.143 24.072C105.375 22.792 105.055 22.856 102.687 24.712C100.767 26.248 100.703 26.248 101.215 25.48C101.663 24.712 101.663 24.648 101.343 24.392C100.767 23.88 100.319 24.264 98.9105 26.568C97.2465 29.256 96.5425 30.984 96.9265 31.368C97.0545 31.496 97.3105 31.624 97.5025 31.624C97.6945 31.624 98.7185 30.664 99.8065 29.448C101.983 27.08 104.415 24.712 104.735 24.712C104.863 24.712 105.183 24.968 105.503 25.288C106.271 26.056 107.231 26.568 109.087 26.44C110.239 26.376 111.583 26.056 112.415 25.672C112.927 25.416 113.247 25.16 113.247 24.968C113.247 24.392 112.607 24.392 111.199 24.904L111.135 24.776ZM126.088 24.904C125.128 25.288 123.144 25.928 121.352 26.632C119.56 27.336 117.96 27.976 117.768 28.104C117.32 28.424 117.192 28.232 116.872 27.016C116.552 25.8 116.744 25.032 117.448 24.648C118.024 24.328 118.024 23.944 117.384 23.688C117.256 23.624 117.128 23.624 117 23.624C116.424 23.624 115.784 24.136 115.4 24.968C115.08 25.672 115.08 25.928 115.464 27.4L115.848 29.064L115.336 29.32C114.312 29.896 112.584 31.112 112.136 31.624C111.56 32.264 111.56 33.352 112.136 33.672C112.776 34.056 114.056 33.992 115.208 33.544C116.488 33.032 117.448 31.816 117.64 30.408L117.768 29.384L121.416 27.912C123.464 27.144 125.64 26.376 126.6 25.992C127.944 25.48 128.328 25.224 128.328 24.904C128.328 24.264 127.816 24.264 126.024 24.968L126.088 24.904ZM114.632 32.264C114.248 32.52 113.672 32.712 113.352 32.712C112.84 32.712 112.776 32.648 112.968 32.328C113.224 31.944 115.464 30.28 115.72 30.28C116.296 30.28 115.528 31.56 114.568 32.2L114.632 32.264ZM148.544 24.776C148.352 24.392 147.968 24.52 147.328 24.904C146.752 25.224 143.104 27.848 141.504 28.68C140.16 29.384 139.648 29.576 139.008 29.512C138.368 29.448 138.176 29.448 138.112 28.488L138.048 27.144C137.92 25.16 137.856 24.84 137.472 24.584C137.216 24.456 136.832 24.328 136.576 24.328C135.744 24.328 133.248 25.672 131.2 27.272C130.112 28.104 129.152 28.744 129.088 28.68C128.96 28.552 131.008 24.84 132.544 22.472C134.464 19.464 136.96 15.88 139.264 12.872C140.352 11.464 140.992 10.504 140.992 10.376C141.12 9.8 140.736 9.672 140.16 9.864C138.624 10.312 129.92 22.856 127.616 27.912C126.592 30.216 126.464 30.792 126.848 31.176C126.976 31.304 127.296 31.432 127.488 31.432C127.68 31.432 129.088 30.472 130.624 29.256C133.12 27.336 135.744 25.672 136.256 25.672C136.384 25.672 136.448 26.44 136.448 27.336C136.448 28.232 136.576 29.256 136.704 29.576C137.152 30.6 139.008 30.984 140.736 30.408C142.4 29.832 146.176 27.272 147.84 25.736C148.352 25.224 148.672 24.84 148.608 24.712L148.544 24.776ZM178.084 42.632C178.34 43.08 179.108 43.08 179.684 42.696C180.196 42.312 180.26 41.928 179.812 41.8C179.556 41.736 179.492 41.544 179.62 41.224C179.94 40.2 181.604 36.104 182.692 33.8C183.652 31.688 183.844 31.368 184.356 31.304C185.188 31.24 190.308 32.136 192.74 32.776C197.924 34.184 207.268 37.896 209.188 39.304C210.34 40.2 210.98 40.328 210.98 39.624C210.98 38.792 208.484 37.384 203.428 35.336C197.092 32.84 193.124 31.624 188.9 30.856L186.66 30.408L189.604 29.256C197.86 25.992 206.756 21.32 217.508 14.6C228.004 8.072 235.556 2.376 235.108 1.352C234.788 0.647999 234.276 0.839996 232.356 2.504C226.532 7.56 210.724 17.672 199.844 23.24C194.66 25.928 185.188 29.96 184.804 29.64C184.548 29.448 188.836 21.512 192.1 16.136C193.892 13.128 196.644 8.712 198.244 6.28C199.844 3.848 201.124 1.736 201.06 1.544C200.996 1.352 200.74 1.16 200.484 1.16C200.1 1.096 199.78 1.416 198.756 2.888C195.172 7.944 188.068 19.656 185.188 25.224C182.5 30.536 182.692 30.216 181.668 30.472C181.156 30.6 180.644 30.856 180.516 31.048C180.196 31.496 180.516 31.944 181.156 31.944C181.476 31.944 181.732 32.008 181.732 32.072C181.732 32.136 181.348 32.968 180.9 33.928C178.852 38.344 177.636 42.12 178.084 42.76V42.632ZM242.055 24.776C241.862 24.392 241.479 24.52 240.838 24.904C240.262 25.224 236.614 27.848 235.014 28.68C233.67 29.384 233.158 29.576 232.518 29.512C231.878 29.448 231.686 29.448 231.622 28.488L231.558 27.144C231.43 25.16 231.366 24.84 230.982 24.584C230.726 24.456 230.342 24.328 230.086 24.328C229.254 24.328 226.758 25.672 224.71 27.272C223.622 28.104 222.662 28.744 222.598 28.68C222.47 28.552 224.518 24.84 226.054 22.472C227.974 19.464 230.47 15.88 232.774 12.872C233.862 11.464 234.502 10.504 234.502 10.376C234.63 9.8 234.246 9.672 233.67 9.864C232.134 10.312 223.43 22.856 221.126 27.912C220.102 30.216 219.974 30.792 220.358 31.176C220.486 31.304 220.806 31.432 220.998 31.432C221.19 31.432 222.598 30.472 224.134 29.256C226.63 27.336 229.254 25.672 229.766 25.672C229.894 25.672 229.958 26.44 229.958 27.336C229.958 28.232 230.086 29.256 230.214 29.576C230.662 30.6 232.518 30.984 234.246 30.408C235.91 29.832 239.687 27.272 241.351 25.736C241.862 25.224 242.182 24.84 242.118 24.712L242.055 24.776ZM258.098 25.16C257.586 25.48 256.946 25.992 256.114 26.632C253.17 29 251.378 29.96 249.906 30.088C249.138 30.152 248.946 30.088 248.69 29.768C248.306 29.192 248.562 28.04 249.394 26.504C249.97 25.48 250.034 25.224 249.778 24.968C249.394 24.584 249.138 24.648 248.434 25.224L247.794 25.736L247.474 25.096C247.09 24.328 246.386 23.944 245.49 23.944C244.786 23.944 243.954 24.2 243.058 24.712C239.922 26.504 237.746 30.408 239.346 31.368C240.498 32.072 242.61 31.304 245.554 29.064L247.09 27.912V29C247.09 29.96 247.154 30.152 247.858 30.728C249.138 31.752 250.738 31.56 253.554 29.96C255.09 29.064 257.522 27.208 258.802 25.928C259.25 25.48 259.506 25.16 259.506 25.032C259.506 24.328 259.186 24.264 257.97 25.096L258.098 25.16ZM244.978 27.848C244.146 28.488 242.866 29.32 242.162 29.768C240.498 30.728 240.114 30.792 240.306 29.96C240.754 28.104 244.274 25.096 245.682 25.16C245.81 25.16 245.938 25.224 246.002 25.288C246.13 25.352 246.322 25.736 246.45 26.12C246.642 26.76 246.578 26.824 245.106 27.912L244.978 27.848ZM280.289 24.776C280.033 24.2 279.457 24.392 277.665 25.672C273.185 28.872 269.729 30.664 268.577 30.344C268.129 30.216 268.257 29 268.897 27.464C269.601 25.736 269.665 24.84 269.025 24.392C267.937 23.56 265.569 24.648 261.345 27.912C259.553 29.32 258.849 29.768 258.977 29.448C259.169 28.872 260.705 26.312 261.537 25.16C262.113 24.392 262.113 24.328 261.729 24.008C261.473 23.752 261.281 23.752 261.025 23.88C260.129 24.328 257.633 28.488 257.377 29.896C257.313 30.344 257.377 30.664 257.633 30.856C257.825 31.048 258.209 31.176 258.465 31.176C258.913 31.176 261.281 29.576 263.009 28.104C264.737 26.632 267.873 24.776 268.193 25.032C268.257 25.096 268.065 25.8 267.745 26.632C266.913 28.808 266.785 29.576 267.233 30.28C268.001 31.496 269.537 31.624 271.841 30.6C274.145 29.64 277.665 27.272 279.457 25.736C280.161 25.16 280.545 24.712 280.481 24.52L280.289 24.776ZM295.693 14.984C291.917 14.92 288.845 14.856 288.845 14.792C288.845 14.728 289.293 13.896 289.869 12.936C290.957 11.144 291.021 10.44 290.125 10.568C289.805 10.632 289.293 11.272 288.269 12.808L286.861 14.984H285.581C283.533 14.984 277.453 15.368 275.469 15.624C273.549 15.88 273.101 16.136 273.549 16.648C273.805 16.968 273.997 16.968 275.533 16.776C277.645 16.52 285.773 16.136 285.901 16.264C285.965 16.328 285.453 17.352 284.749 18.568C284.045 19.784 282.701 22.088 281.805 23.688C280.909 25.288 278.989 28.616 277.581 31.112C273.741 37.832 271.245 43.144 271.693 43.848C271.949 44.296 272.909 44.36 273.229 43.976C273.357 43.848 273.421 43.336 273.421 42.888C273.421 41.672 275.085 38.152 285.005 21.128C285.709 19.912 286.669 18.312 287.117 17.608C287.821 16.392 287.949 16.264 288.717 16.136C290.253 15.944 301.261 16.008 301.517 16.2C301.965 16.52 303.117 16.328 303.181 15.88C303.309 15.048 302.925 14.984 295.629 14.92L295.693 14.984Z" fill="black"/>
</svg>
