<svg width="42" height="16" viewBox="0 0 42 16" fill="none" xmlns="http://www.w3.org/2000/svg">
<path d="M1 7C0.447715 7 0 7.44772 0 8C0 8.55228 0.447715 9 1 9V7ZM41.3196 8.70711C41.7101 8.31658 41.7101 7.68342 41.3196 7.29289L34.9556 0.928932C34.5651 0.538408 33.9319 0.538408 33.5414 0.928932C33.1509 1.31946 33.1509 1.95262 33.5414 2.34315L39.1982 8L33.5414 13.6569C33.1509 14.0474 33.1509 14.6805 33.5414 15.0711C33.9319 15.4616 34.5651 15.4616 34.9556 15.0711L41.3196 8.70711ZM1 9H40.6125V7H1V9Z" fill="#333333"/>
</svg>
