<svg width="48" height="32" viewBox="0 0 48 32" fill="none" xmlns="http://www.w3.org/2000/svg">
<path d="M7.35728 31.9167C11.0947 31.9167 14.1117 30.2852 15.5976 27.419L16.0029 31.3876H17.669V17.3651C17.669 11.8973 13.9766 9.69248 9.33857 9.69248C4.25026 9.69248 0.828029 12.3382 0.828029 16.4832H2.89938C2.89938 13.3965 5.28593 11.5445 9.29354 11.5445C12.7158 11.5445 15.5976 12.9115 15.5976 17.6738V18.4675L8.16781 19.0408C3.12452 19.4376 0.0625305 21.907 0.0625305 25.7874C0.0625305 29.4033 2.71926 31.9167 7.35728 31.9167ZM7.62746 30.1088C4.38534 30.1088 2.13388 28.6536 2.13388 25.7433C2.13388 23.1417 3.98008 21.0692 8.34793 20.7164L15.5976 20.1432V21.2897C15.5976 26.4929 12.7158 30.1088 7.62746 30.1088ZM23.8715 0.0796204H21.7101V31.3876H23.8715V23.0976L30.5358 15.0281L40.6224 31.3876H43.144L31.9767 13.3083L42.9189 0.0796204H40.3072L23.8715 20.0109V0.0796204ZM45.8001 31.7918C46.9259 31.7918 47.864 30.8731 47.864 29.8075C47.864 28.7051 46.9259 27.7864 45.8001 27.7864C44.6744 27.7864 43.7363 28.7051 43.7363 29.8075C43.7363 30.8731 44.6744 31.7918 45.8001 31.7918Z" fill="#333333"/>
</svg>
